<?xml version="1.0" encoding="UTF-8"?>
<svg version="1.1" xmlns="http://www.w3.org/2000/svg" width="48" height="48">
<path d="M0 0 C1.07105232 -0.00143509 1.07105232 -0.00143509 2.16374207 -0.00289917 C3.65693247 -0.00357385 5.15012593 -0.00176977 6.64331055 0.00244141 C8.92959093 0.00783994 11.21567842 0.00245199 13.50195312 -0.00390625 C14.95963585 -0.00324612 16.41731845 -0.0019663 17.875 0 C19.19089111 0.00112793 20.50678223 0.00225586 21.86254883 0.00341797 C25.10546875 0.1328125 25.10546875 0.1328125 28.10546875 1.1328125 C28.22924479 6.88021008 28.31989123 12.62682877 28.38012695 18.37524414 C28.40524156 20.32980873 28.43934006 22.28427967 28.48266602 24.23852539 C28.54345309 27.05117918 28.57170858 29.86258952 28.59375 32.67578125 C28.61955643 33.54679977 28.64536285 34.4178183 28.67195129 35.31523132 C28.67400859 39.78480449 28.57102744 41.54667066 25.69995117 45.16137695 C21.15497456 48.6149091 17.47454143 48.26268309 11.94140625 48.23046875 C11.0341983 48.2290538 10.12699036 48.22763885 9.19229126 48.22618103 C6.2883172 48.22057346 3.3844196 48.20801968 0.48046875 48.1953125 C-1.48567597 48.19029848 -3.4518219 48.1857354 -5.41796875 48.18164062 C-10.24351915 48.17060156 -15.06901222 48.15333185 -19.89453125 48.1328125 C-19.99342163 42.08224255 -20.06601043 36.03214315 -20.11425781 29.98095703 C-20.13437094 27.92260545 -20.16166522 25.86431098 -20.19628906 23.80615234 C-20.24482008 20.84718737 -20.26750291 17.88897789 -20.28515625 14.9296875 C-20.30580139 14.00976013 -20.32644653 13.08983276 -20.34771729 12.14202881 C-20.34905084 8.3434393 -20.34352249 5.88381578 -18.37011719 2.58300781 C-12.94285207 -0.59627767 -6.13125059 -0.0184927 0 0 Z " fill="#EEEDEF" transform="translate(19.89453125,-0.1328125)"/>
<path d="M0 0 C0.99 0 1.98 0 3 0 C3 3.96 3 7.92 3 12 C4.98 12 6.96 12 9 12 C9 8.04 9 4.08 9 0 C9.99 0 10.98 0 12 0 C12.33 1.98 12.66 3.96 13 6 C16.3 6 19.6 6 23 6 C23 6.99 23 7.98 23 9 C20.69 9 18.38 9 16 9 C16 10.65 16 12.3 16 14 C17.32 14 18.64 14 20 14 C20 14.99 20 15.98 20 17 C18.68 17 17.36 17 16 17 C16 18.65 16 20.3 16 22 C18.31 22 20.62 22 23 22 C23 22.99 23 23.98 23 25 C19.7 25 16.4 25 13 25 C12.67 25.99 12.34 26.98 12 28 C11.01 28 10.02 28 9 28 C9 24.04 9 20.08 9 16 C7.02 16 5.04 16 3 16 C3 19.96 3 23.92 3 28 C2.01 28 1.02 28 0 28 C0 18.76 0 9.52 0 0 Z " fill="#7B72A4" transform="translate(2,10)"/>
<path d="M0 0 C0.33 0.66 0.66 1.32 1 2 C4.3 2 7.6 2 11 2 C11 2.99 11 3.98 11 5 C8.69 5 6.38 5 4 5 C4 6.65 4 8.3 4 10 C5.32 10 6.64 10 8 10 C8 10.99 8 11.98 8 13 C6.68 13 5.36 13 4 13 C4 14.65 4 16.3 4 18 C6.31 18 8.62 18 11 18 C11 18.99 11 19.98 11 21 C7.7 21 4.4 21 1 21 C0.67 21.99 0.34 22.98 0 24 C-0.99 24 -1.98 24 -3 24 C-3 22.02 -3 20.04 -3 18 C-2.34 17.67 -1.68 17.34 -1 17 C-0.67 11.39 -0.34 5.78 0 0 Z " fill="#E2E1E7" transform="translate(14,14)"/>
<path d="M0 0 C7 0 7 0 9 1 C9.10349817 7.41688675 8.74507544 13.62694402 8 20 C7.01 20 6.02 20 5 20 C5 16.7 5 13.4 5 10 C4.34 10 3.68 10 3 10 C3 13.3 3 16.6 3 20 C2.01 20 1.02 20 0 20 C0 13.4 0 6.8 0 0 Z " fill="#8A82AE" transform="translate(26,15)"/>
<path d="M0 0 C3.3 0 6.6 0 10 0 C10 0.99 10 1.98 10 3 C7.69 3 5.38 3 3 3 C3 4.65 3 6.3 3 8 C4.32 8 5.64 8 7 8 C7 8.99 7 9.98 7 11 C5.68 11 4.36 11 3 11 C3 12.65 3 14.3 3 16 C5.31 16 7.62 16 10 16 C10 16.99 10 17.98 10 19 C6.7 19 3.4 19 0 19 C0 12.73 0 6.46 0 0 Z " fill="#7F76A7" transform="translate(36,16)"/>
<path d="M0 0 C3.3 0 6.6 0 10 0 C10 0.99 10 1.98 10 3 C7.69 3 5.38 3 3 3 C3 4.65 3 6.3 3 8 C4.32 8 5.64 8 7 8 C7 8.99 7 9.98 7 11 C4.69 11.66 2.38 12.32 0 13 C0 8.71 0 4.42 0 0 Z " fill="#7D73A5" transform="translate(15,16)"/>
<path d="M0 0 C0.33 1.32 0.66 2.64 1 4 C3.31 4 5.62 4 8 4 C8 4.99 8 5.98 8 7 C4.7 7 1.4 7 -2 7 C-2 5.02 -2 3.04 -2 1 C-1.34 0.67 -0.68 0.34 0 0 Z " fill="#A59FBF" transform="translate(17,28)"/>
<path d="M0 0 C0 3.63 0 7.26 0 11 C-0.99 11 -1.98 11 -3 11 C-3 7.7 -3 4.4 -3 1 C-1 0 -1 0 0 0 Z " fill="#A8A2C2" transform="translate(5,27)"/>
<path d="M0 0 C0 2.31 0 4.62 0 7 C-0.99 7 -1.98 7 -3 7 C-3 5.02 -3 3.04 -3 1 C-1 0 -1 0 0 0 Z " fill="#B2AEC8" transform="translate(14,31)"/>
<path d="M0 0 C1.98 0 3.96 0 6 0 C6 0.99 6 1.98 6 3 C4.02 3 2.04 3 0 3 C0 2.01 0 1.02 0 0 Z " fill="#978FB6" transform="translate(40,32)"/>
<path d="M0 0 C0.99 0.33 1.98 0.66 3 1 C3 2.65 3 4.3 3 6 C2.01 6 1.02 6 0 6 C0 4.02 0 2.04 0 0 Z " fill="#9F98BB" transform="translate(26,29)"/>
</svg>
